<?xml version="1.0" encoding="utf-8"?>
<!-- Generator: Adobe Illustrator 21.0.2, SVG Export Plug-In . SVG Version: 6.00 Build 0)  -->
<svg version="1.1" id="Layer_1" xmlns="http://www.w3.org/2000/svg" xmlns:xlink="http://www.w3.org/1999/xlink" x="0px" y="0px"
	 viewBox="0 0 762 220" style="enable-background:new 0 0 762 220;" xml:space="preserve">
<style type="text/css">
	.st0{fill:#30CA6D;}
	.st1{opacity:0.5;fill:#30CA6D;}
</style>
<path class="st1" d="M634.9,162.1c-19.3,0-38.4-8.8-50.9-25.4c-21.2-28.1-15.5-68.1,12.5-89.3c11.5-8.7,24.9-12.9,38.3-12.9
	c19.3,0,38.4,8.8,50.9,25.4c21.2,28.1,15.6,68.1-12.5,89.3C661.7,157.9,648.2,162.1,634.9,162.1 M701.1,0
	C657,0,601.1,3.9,577.3,21.9c-42.1,31.8-50.6,91.8-18.8,134c18.8,25,47.4,38.1,76.4,38.1c20,0,40.2-6.3,57.4-19.3
	C734.5,142.9,762,2.3,762,2.3S735,0,701.1,0"/>
</svg>
