<?xml version="1.0" encoding="utf-8"?>
<!-- Generator: Adobe Illustrator 21.0.2, SVG Export Plug-In . SVG Version: 6.00 Build 0)  -->
<svg version="1.1" id="Layer_1" xmlns="http://www.w3.org/2000/svg" xmlns:xlink="http://www.w3.org/1999/xlink" x="0px" y="0px"
	 viewBox="0 0 762 220" style="enable-background:new 0 0 762 220;" xml:space="preserve">
<style type="text/css">
	.st0{fill:#30CA6D;}
	.st1{opacity:0.5;fill:#30CA6D;}
</style>
<path class="st0" d="M440.5,131.8c0,7,1.4,13.1,4.3,18.4c2.9,5.3,6.8,9.4,11.8,12.2c5,2.8,10.6,4.2,16.9,4.2c6.3,0,11.9-1.7,17-5.1
	c5.1-3.4,9.1-8,12.1-13.6l6.8,3.9c-3.8,7.2-8.8,12.7-15.2,16.5c-6.4,3.9-13.6,5.8-21.7,5.8c-7.9,0-14.9-1.9-21-5.8
	c-6.1-3.9-10.8-9.1-14.1-15.7c-3.3-6.6-4.9-13.8-4.9-21.6c0-7.7,1.7-14.8,5-21.4c3.3-6.6,8-11.8,14.1-15.7c6.1-3.9,13-5.8,20.8-5.8
	c8,0,15.1,2,21.1,5.9c6,3.9,10.6,9.2,13.8,15.9c3.2,6.7,4.8,14,4.8,22H440.5z M498.8,110c-2.9-4.4-6.6-7.9-11.1-10.6
	c-4.5-2.6-9.5-3.9-15-3.9c-5.5,0-10.6,1.3-15.3,3.9c-4.7,2.6-8.6,6.1-11.6,10.5c-3,4.4-4.7,9.2-5.2,14.3h63.5
	C503.4,119.2,501.7,114.5,498.8,110z M353.9,150.2c2.9,5.3,6.8,9.4,11.8,12.2c5,2.8,10.6,4.2,16.9,4.2c6.3,0,11.9-1.7,17-5.1
	c5.1-3.4,9.1-8,12.1-13.6l6.8,3.9c-3.8,7.2-8.8,12.7-15.2,16.5c-6.4,3.9-13.6,5.8-21.7,5.8c-7.9,0-14.9-1.9-21-5.8
	c-6.1-3.9-10.8-9.1-14.1-15.7c-3.3-6.6-4.9-13.8-4.9-21.6c0-7.7,1.7-14.8,5-21.4c3.3-6.6,8.1-11.8,14.1-15.7
	c6.1-3.9,13-5.8,20.8-5.8c8,0,15.1,2,21.1,5.9c6,3.9,10.6,9.2,13.8,15.9c3.2,6.7,4.7,14,4.7,22h-71.5
	C349.6,138.7,351,144.9,353.9,150.2z M413.1,124.3c-0.6-5.1-2.4-9.8-5.3-14.2c-2.9-4.4-6.6-7.9-11.1-10.6c-4.5-2.6-9.5-3.9-15-3.9
	c-5.5,0-10.6,1.3-15.3,3.9c-4.7,2.6-8.6,6.1-11.6,10.5c-3,4.4-4.7,9.2-5.2,14.3H413.1z M325,95.5c-4.9,0-8.7,1.5-11.1,4.6
	c-2.5,3.1-4.1,6.8-4.8,11.1c-0.7,4.3-1,9.2-1,14.8v4.1v42.2H300V89.8h8.1v10.7h0.3c3.6-8.3,9.5-12.5,17.9-12.5c2.9,0,5.8,0.7,8.7,2
	l-4.3,7.2C328.7,96.1,326.8,95.5,325,95.5z M264.4,203.4c-3.8,5.1-8.5,9.1-14.3,11.8c-5.7,2.7-11.9,4.1-18.6,4.1
	c-7.3,0-13.9-1.4-19.9-4.1c-6-2.8-10.9-6.8-14.6-12.2c-3.7-5.4-5.7-11.7-6.2-19.1h8c0.3,5.5,1.9,10.4,4.9,14.7
	c3,4.2,6.8,7.5,11.6,9.8c4.8,2.3,9.9,3.4,15.5,3.4c5.4,0,10.4-1,15.1-3.1c4.7-2,8.4-5.1,11.3-9.2c3-4.4,4.9-9,5.9-14
	c1-4.9,1.4-10.7,1.4-17.3V158h-0.4c-3.7,4.9-8.4,8.8-14.2,11.7c-5.8,2.9-11.8,4.4-18,4.4c-7.7,0-14.7-2-20.7-5.9
	c-6.1-4-10.8-9.3-14.2-15.9c-3.4-6.6-5-13.8-5-21.4c0-7.8,1.7-15,5.2-21.6c3.5-6.6,8.3-11.7,14.6-15.6c6.3-3.8,13.3-5.7,21.2-5.7
	c12.7,0,23.1,5.3,31.1,16.1h0.4V89.8h8v78.6c0,7.9-0.5,14.5-1.5,19.8C270.1,193.5,267.9,198.5,264.4,203.4z M261,112.3
	c-2.7-5.2-6.6-9.3-11.6-12.3c-5-3-10.8-4.5-17.3-4.5c-4.6,0-8.9,1-12.8,2.9c-3.9,1.9-7.3,4.5-10.2,7.8c-2.9,3.3-5.1,7.1-6.6,11.3
	c-1.6,4.2-2.4,8.6-2.4,13c0,6.3,1.3,12.3,4,17.8c2.7,5.5,6.5,10,11.4,13.3c4.9,3.3,10.6,4.9,17.1,4.9c6.7,0,12.6-1.7,17.5-5
	c4.9-3.3,8.7-7.8,11.2-13.5c2.5-5.6,3.8-11.8,3.8-18.5C265.1,123.3,263.7,117.5,261,112.3z M112.2,150.2c2.9,5.3,6.8,9.4,11.8,12.2
	c5,2.8,10.6,4.2,16.9,4.2c6.3,0,11.9-1.7,17-5.1c5.1-3.4,9.1-8,12.1-13.6l6.8,3.9c-3.8,7.2-8.8,12.7-15.2,16.5
	c-6.4,3.9-13.6,5.8-21.7,5.8c-7.9,0-14.9-1.9-21-5.8c-6.1-3.9-10.8-9.1-14.1-15.7c-3.3-6.6-4.9-13.8-4.9-21.6c0-7.7,1.7-14.8,5-21.4
	c3.3-6.6,8-11.8,14.1-15.7c6.1-3.9,13-5.8,20.8-5.8c8,0,15.1,2,21.1,5.9c6,3.9,10.6,9.2,13.8,15.9c3.2,6.7,4.7,14,4.7,22h-71.5
	C107.9,138.7,109.3,144.9,112.2,150.2z M171.4,124.3c-0.6-5.1-2.4-9.8-5.3-14.2c-2.9-4.4-6.6-7.9-11.1-10.6c-4.5-2.6-9.5-3.9-15-3.9
	c-5.5,0-10.6,1.3-15.3,3.9c-4.7,2.6-8.6,6.1-11.6,10.5c-3,4.4-4.7,9.2-5.2,14.3H171.4z M72.4,157.5h-0.3c-2.9,5.1-7.3,9.1-13.2,12.1
	c-5.9,3-11.9,4.5-18.2,4.5c-8.1,0-15.2-1.9-21.4-5.8c-6.2-3.9-10.9-9.1-14.3-15.8s-5-14-5-22c0-6,0.9-11.7,2.8-16.9
	c1.9-5.2,4.6-9.7,8.1-13.6c3.5-3.8,7.8-6.8,12.8-8.9c5-2.1,10.5-3.2,16.6-3.2c6.4,0,12.5,1.4,18.1,4.2c5.6,2.8,10.2,6.7,13.6,11.9
	h0.3V24.9h8v147.4h-8V157.5z M70.6,116.3c-1.5-4.2-3.8-7.8-6.7-10.9c-2.9-3.1-6.4-5.5-10.4-7.3c-4.1-1.7-8.6-2.6-13.5-2.6
	c-4.6,0-8.9,1-12.8,2.9c-3.9,1.9-7.3,4.5-10.2,7.8c-2.9,3.3-5.1,7.1-6.6,11.3c-1.6,4.2-2.3,8.6-2.3,13c0,6.3,1.3,12.3,4,17.8
	c2.7,5.6,6.5,10,11.4,13.3c4.9,3.3,10.6,5,17.1,5c6.7,0,12.6-1.7,17.5-5c4.9-3.3,8.7-7.8,11.2-13.5c2.5-5.6,3.8-11.8,3.8-18.5
	C72.9,124.9,72.2,120.5,70.6,116.3z"/>
<path class="st0" d="M676,109.6c0,5.2-1.7,9.4-5.2,12.7c-3.5,3.3-8,4.9-13.4,4.9c-6.9,0-12.1-2.6-15.5-7.7c-1.4-2.1-2.3-5.1-2.6-8.9
	h8.4c0.4,2.8,1.5,4.9,3.3,6.4c1.7,1.5,4,2.2,6.8,2.2c2.8,0,5.1-0.9,7-2.8c1.8-1.9,2.8-4.4,2.8-7.3c0-3.9-1.4-6.7-4.1-8.3
	c-1.6-0.9-4.1-1.4-7.5-1.4v-7.4c3.7,0,6.2-0.4,7.4-1.2c2.3-1.4,3.4-3.8,3.4-7c0-2.5-0.8-4.5-2.5-6c-1.6-1.6-3.7-2.4-6.3-2.4
	c-2.4,0-4.3,0.6-5.6,1.8c-1.3,1.2-2.2,3.2-2.8,6.1h-8.7c0.9-5.4,2.7-9.4,5.5-11.9c2.8-2.5,6.7-3.8,11.7-3.8c5,0,9.2,1.5,12.4,4.5
	c3.2,3,4.8,6.8,4.8,11.5c0,5.3-2.1,9.4-6.3,12.3C673.6,98.7,676,103.3,676,109.6z M610.7,86.2c5.6,0,10.2,1.9,13.8,5.7
	c3.6,3.8,5.4,8.6,5.4,14.5c0,6.1-2,11.1-6.1,15c-4.1,3.9-9.2,5.9-15.4,5.9c-7.6,0-13.7-3.6-18.1-10.8l6.6-5.6
	c1.8,3.1,3.6,5.3,5.5,6.5c1.8,1.2,4.1,1.9,6.8,1.9c3.5,0,6.4-1.2,8.8-3.7c2.4-2.5,3.5-5.6,3.5-9.2c0-3.7-1.2-6.7-3.5-9
	c-2.3-2.4-5.3-3.6-8.8-3.6c-3.9,0-7.3,1.7-10.1,5.1h-2.9l9.1-30.4H629v8.2h-17.8l-2.8,9.5c0.4,0,0.8-0.1,1.2-0.1
	C610,86.2,610.4,86.2,610.7,86.2z"/>
</svg>
